<?xml version="1.0" standalone="no"?>
<!DOCTYPE svg PUBLIC "-//W3C//DTD SVG 20010904//EN"
 "http://www.w3.org/TR/2001/REC-SVG-20010904/DTD/svg10.dtd">
<svg version="1.0" xmlns="http://www.w3.org/2000/svg"
 width="512.000000pt" height="512.000000pt" viewBox="0 0 512.000000 512.000000"
 preserveAspectRatio="xMidYMid meet">
<metadata>
Created by potrace 1.14, written by Peter Selinger 2001-2017
</metadata>
<g transform="translate(0.000000,512.000000) scale(0.100000,-0.100000)"
fill="#000000" stroke="none">
<path d="M755 5109 c-214 -31 -430 -155 -560 -321 -71 -89 -137 -224 -167
-338 l-23 -85 0 -1805 0 -1805 23 -85 c84 -319 323 -558 642 -642 l85 -23
1805 0 1805 0 85 23 c319 84 558 323 642 642 l23 85 0 1805 0 1805 -23 85
c-83 317 -317 552 -637 642 l-80 23 -1780 1 c-979 1 -1807 -2 -1840 -7z m1392
-449 c-191 -212 -187 -533 9 -734 l55 -56 -1 -670 0 -670 257 0 c389 1 504 16
648 84 191 90 307 262 335 496 19 151 -12 326 -77 440 -71 123 -191 218 -336
265 l-82 26 76 77 c113 115 159 224 159 377 0 143 -45 261 -142 369 -38 43
-45 56 -31 56 10 0 72 -5 138 -11 408 -35 734 -177 986 -428 155 -156 267
-334 334 -535 113 -336 108 -788 -10 -1116 -140 -385 -449 -684 -856 -828
-109 -38 -286 -78 -411 -91 -54 -6 -298 -11 -543 -11 l-445 0 0 -680 0 -680
-530 0 -530 0 0 2190 0 2190 526 0 526 0 -55 -60z m602 41 c220 -68 351 -290
297 -501 -21 -82 -51 -131 -116 -196 -90 -89 -200 -134 -330 -134 -130 0 -243
46 -335 136 -227 224 -129 595 183 695 79 25 221 25 301 0z m-1739 -2183 l0
-1513 -21 25 c-160 200 -317 542 -384 837 -51 229 -60 326 -59 658 0 270 3
328 22 450 51 323 148 601 294 844 48 81 138 211 145 211 2 0 3 -681 3 -1512z
m3560 -613 c-26 -254 -81 -452 -185 -660 -86 -172 -175 -295 -315 -435 -289
-289 -643 -454 -1103 -515 -120 -15 -480 -21 -571 -9 l-46 7 0 478 c0 264 1
479 3 479 1 0 34 -7 72 -15 231 -48 524 -18 720 74 138 65 228 145 304 269 18
28 39 52 47 52 37 0 223 68 339 125 275 133 482 322 635 578 32 53 68 123 81
155 l24 57 3 -265 c2 -147 -2 -314 -8 -375z"/>
</g>
</svg>
